Coordinates
version=1
nRows=8
nColumns=63
inDegrees=yes

Units are S.I. units (second, meters, Newtons, ...)
If the header above contains a line with 'inDegrees', this indicates whether rotational values are in degrees (yes) or radians (no).

endheader
time	pelvis_tilt	pelvis_list	pelvis_rotation	pelvis_tx	pelvis_ty	pelvis_tz	hip_flexion_r	hip_adduction_r	hip_rotation_r	knee_angle_r	knee_angle_r_beta	ankle_angle_r	subtalar_angle_r	mtp_angle_r	hip_flexion_l	hip_adduction_l	hip_rotation_l	knee_angle_l	knee_angle_l_beta	ankle_angle_l	subtalar_angle_l	mtp_angle_l	L5_S1_Flex_Ext	L5_S1_Lat_Bending	L5_S1_axial_rotation	L4_L5_Flex_Ext	L4_L5_Lat_Bending	L4_L5_axial_rotation	L3_L4_Flex_Ext	L3_L4_Lat_Bending	L3_L4_axial_rotation	L2_L3_Flex_Ext	L2_L3_Lat_Bending	L2_L3_axial_rotation	L1_L2_Flex_Ext	L1_L2_Lat_Bending	L1_L2_axial_rotation	L1_T12_Flex_Ext	L1_T12_Lat_Bending	L1_T12_axial_rotation	Abs_r3	Abs_r2	Abs_r1	Abs_t1	Abs_t2	neck_flexion	neck_bending	neck_rotation	arm_flex_r	arm_add_r	arm_rot_r	elbow_flex_r	pro_sup_r	wrist_flex_r	wrist_dev_r	arm_flex_l	arm_add_l	arm_rot_l	elbow_flex_l	pro_sup_l	wrist_flex_l	wrist_dev_l
      2.27118644	     -0.74170406	      0.49832938	     95.56655734	      0.46123435	      0.89377309	      0.94252545	     -9.16037217	      1.29298134	     -7.21988246	      6.00762578	      0.10485285	     22.80763822	      7.24647877	      0.00000000	     -7.67909995	     -3.03088518	    -12.63465040	      7.76806950	      0.13557839	     25.54848356	     13.62297890	      0.00000000	     -0.13781668	      0.04321431	      1.17423993	     -0.25593936	      0.05747504	      1.24762993	     -0.22641903	      0.10507128	      1.24762993	     -0.15751068	      0.10507128	      1.02745994	     -0.12797657	      0.08812263	      0.95406994	     -0.07874845	      0.06693897	      0.88067995	     -0.98441077	      0.48884897	      6.53077022	      0.00000000	      0.00000000	     13.64638104	     -3.11607425	     -4.23293246	     40.49699908	     -7.11831612	     15.80906536	    126.58561690	     89.25444422	    -15.15565063	      3.43718519	     31.78812014	     -3.55251846	      2.41074948	    125.37709810	     87.79916194	    -16.54865842	     -2.31050525
      2.28813559	     -0.97551468	      0.34801022	     95.16495399	      0.46181327	      0.89352898	      0.94191763	     -9.07980058	      0.98406894	     -6.57030943	      5.99717262	      0.10467041	     22.64157056	      6.89684699	      0.00000000	     -7.55445524	     -2.73197197	    -13.04016907	      7.89524037	      0.13779794	     25.56638820	     13.48118269	      0.00000000	     -0.11469345	      0.02746729	      1.13417741	     -0.21299721	      0.03653150	      1.20506350	     -0.18842988	      0.06678397	      1.20506350	     -0.13108315	      0.06678397	      0.99240524	     -0.10650434	      0.05601130	      0.92151915	     -0.06553584	      0.04254683	      0.85063306	     -0.81924388	      0.31071548	      6.30795453	      0.00000000	      0.00000000	     13.52006392	     -3.37296122	     -3.45282818	     38.49161890	     -7.09119450	     17.57352731	    124.38060380	     89.27295113	    -16.74064880	      0.12431313	     29.15343750	     -5.16861272	      3.42918247	    125.27376033	     88.12858802	    -16.09352589	     -3.90385445
      2.30508475	     -1.43069716	      0.14200452	     94.93463117	      0.46271340	      0.89295977	      0.94136973	     -8.95473009	      0.48099977	     -6.28806900	      6.03036061	      0.10524965	     22.67821099	      6.74164285	      0.00000000	     -7.37105095	     -2.25374371	    -13.22156717	      7.98933112	      0.13944013	     25.53041208	     13.43132979	      0.00000000	     -0.08485473	     -0.02411104	      1.10947355	     -0.15758372	     -0.03206769	      1.17881565	     -0.13940783	     -0.05862359	      1.17881565	     -0.09698047	     -0.05862359	      0.97078936	     -0.07879610	     -0.04916724	      0.90144726	     -0.04848599	     -0.03734800	      0.83210516	     -0.60610884	     -0.27274893	      6.17055904	      0.00000000	      0.00000000	     13.42502162	     -3.62269829	     -3.22462827	     36.60964425	     -6.83842220	     18.57911628	    122.30094734	     89.26422667	    -16.64240324	     -0.89365241	     27.10339509	     -6.48068889	      4.92163827	    124.14384917	     88.44900561	    -15.55911510	     -5.01773466
      2.32203390	     -1.91338925	      0.01720390	     94.86045828	      0.46381634	      0.89235669	      0.94100477	     -8.93100266	      0.01116303	     -6.08173179	      6.01676382	      0.10501234	     22.80261522	      6.50876948	      0.00000000	     -7.27420148	     -1.79331303	    -13.28426938	      8.00159701	      0.13965421	     25.53103600	     13.54591337	      0.00000000	     -0.06960736	     -0.08447804	      1.09941278	     -0.12926783	     -0.11235579	      1.16812608	     -0.11435793	     -0.20539991	      1.16812608	     -0.07955425	     -0.20539991	      0.96198619	     -0.06463739	     -0.17226762	      0.89327289	     -0.03977364	     -0.13085649	      0.82455959	     -0.49719840	     -0.95563250	      6.11460408	      0.00000000	      0.00000000	     13.37029422	     -3.71570800	     -3.10102276	     34.95170120	     -6.57565093	     19.42465981	    120.22458687	     89.20871734	    -16.47466412	     -1.76139191	     25.39892960	     -7.73796281	      6.77314477	    122.48035273	     88.53569807	    -15.12899006	     -5.13174394
      2.33898305	     -2.20568871	     -0.02456034	     94.87460138	      0.46477755	      0.89179971	      0.94090221	     -8.96180311	     -0.24808148	     -6.02529309	      6.00164412	      0.10474845	     22.99415876	      6.43012764	      0.00000000	     -7.24311933	     -1.53972064	    -13.19972589	      7.94998686	      0.13875345	     25.61554925	     13.68273815	      0.00000000	     -0.06919813	     -0.12123440	      1.09344953	     -0.12850785	     -0.16124175	      1.16179013	     -0.11368561	     -0.29476932	      1.16179013	     -0.07908654	     -0.29476932	      0.95676834	     -0.06425738	     -0.24722119	      0.88842774	     -0.03953981	     -0.18779209	      0.82008715	     -0.49427533	     -1.37142780	      6.08143826	      0.00000000	      0.00000000	     13.45634721	     -3.93728706	     -2.96027283	     33.43742792	     -6.45234991	     20.12918931	    118.46415459	     89.10804296	    -16.21227986	     -1.66194631	     23.48485379	     -8.95722511	      8.57447356	    120.74402496	     88.40350659	    -14.75443066	     -4.31408174
      2.35593220	     -2.80637927	     -0.20533344	     95.13977116	      0.46558906	      0.89117360	      0.94064482	     -8.91047686	     -0.78367693	     -6.18798911	      5.96341573	      0.10408124	     23.32034746	      6.24083023	      0.00000000	     -7.12563316	     -0.98418613	    -12.93630741	      7.77030724	      0.13561745	     25.59940819	     14.09895534	      0.00000000	     -0.05602924	     -0.20783825	      1.03461211	     -0.10405191	     -0.27642487	      1.09927536	     -0.09205045	     -0.50533791	      1.09927536	     -0.06403582	     -0.50533791	      0.90528559	     -0.05202876	     -0.42382375	      0.84062234	     -0.03201511	     -0.32194144	      0.77595908	     -0.40021129	     -2.35110782	      5.75420216	      0.00000000	      0.00000000	     13.68225651	     -3.68306097	     -3.13717309	     31.44129683	     -5.89539746	     20.08351054	    117.03445210	     88.97258768	    -13.66969657	     -1.10080026	     20.80569507	    -10.27281815	      9.83757297	    119.76880219	     87.83671259	    -14.14067163	     -0.39122707
      2.37288136	     -3.16555920	     -0.36988641	     95.30994333	      0.46603763	      0.89058719	      0.94074963	     -8.78817447	     -1.12974530	     -6.47935966	      6.00580047	      0.10482099	     23.68760635	      6.42174331	      0.00000000	     -6.99203367	     -0.62267529	    -12.51217402	      7.59207809	      0.13250676	     25.61316154	     14.15174285	      0.00000000	     -0.04865908	     -0.25785803	      0.98019108	     -0.09036479	     -0.34295117	      1.04145302	     -0.07994201	     -0.62695600	      1.04145302	     -0.05561247	     -0.62695600	      0.85766719	     -0.04518483	     -0.52582409	      0.79640525	     -0.02780380	     -0.39942208	      0.73514331	     -0.34756697	     -2.91694155	      5.45152871	      0.00000000	      0.00000000	     14.05449964	     -3.42935534	     -2.96444184	     29.20880584	     -5.73763245	     20.29603954	    116.36501411	     88.75886158	    -11.00002625	      0.93472308	     17.45478451	    -11.54180595	     10.78677673	    118.71978929	     85.79858467	    -13.55505135	      3.77527730
      2.38983051	     -3.17449637	     -0.77827031	     95.42375676	      0.46583091	      0.88984855	      0.94091194	     -8.39904369	     -1.17884958	     -6.78162873	      5.97451814	      0.10427501	     23.86639727	      6.67723941	      0.00000000	     -6.67716512	     -0.52129373	    -12.08129455	      7.18653123	      0.12542863	     25.52351879	     14.07492366	      0.00000000	      0.01248922	     -0.25686282	      0.96125468	      0.02319373	     -0.34162756	      1.02133310	      0.02051854	     -0.62453627	      1.02133310	      0.01427393	     -0.62453627	      0.84109785	      0.01159749	     -0.52379467	      0.78101943	      0.00713634	     -0.39788051	      0.72094101	      0.08920924	     -2.90568364	      5.34621017	      0.00000000	      0.00000000	     14.10139782	     -3.37815801	     -2.55800580	     26.41342990	     -6.23096291	     20.95739621	    116.22183179	     88.36914366	     -8.27075342	      2.85921910	     13.75435356	    -12.35564503	     11.65049926	    116.91022655	     82.88177765	    -12.97123221	      7.95058045
